# xmcd
#
# Track frame offsets:
#	150
#	13460
#	27185
#	46295
#	66375
#	79072
#	92500
#	112192
#	129835
#	149632
#	161430
#	175885
#
# Disc length: 2506
#
# Revision: 1
# Processed by: cddbd v1.5.1PL0 Copyright (c) Steve Scherf et al.
# Submitted via: ExactAudioCopy v0.95a3
# Normalized: r0:TRMNUM
#
DISCID=a309c80c
DTITLE=Lasse Lindh - You Wake Up At Sea Tac
DYEAR=2002
DGENRE=Rock
TTITLE0=Bruised
TTITLE1=Walk With Me
TTITLE2=C'mon Through
TTITLE3=Heart Is Old
TTITLE4=Computerwelt
TTITLE5=River
TTITLE6=Stuff
TTITLE7=Damage Done
TTITLE8=Trigger Happy
TTITLE9=Best Laid Plans
TTITLE10=Rush - bonus track
TTITLE11=Teenage Skin bonus track
EXTD=
EXTT0=
EXTT1=
EXTT2=
EXTT3=
EXTT4=
EXTT5=
EXTT6=
EXTT7=
EXTT8=
EXTT9=
EXTT10=
EXTT11=
PLAYORDER=
